{
    "asset" : {
        "generator" : "Khronos glTF Blender I/O v1.8.19",
        "version" : "2.0"
    },
    "scene" : 0,
    "scenes" : [
        {
            "name" : "Scene",
            "nodes" : [
                0
            ]
        }
    ],
    "nodes" : [
        {
            "mesh" : 0,
            "name" : "Node",
            "rotation" : [
                0,
                -0.1961161345243454,
                0,
                0.9805806875228882
            ],
            "scale" : [
                2,
                2,
                2
            ]
        }
    ],
    "materials" : [
        {
            "name" : "mat8",
            "pbrMetallicRoughness" : {
                "baseColorFactor" : [
                    0.9100000262260437,
                    0.05000000074505806,
                    0.029999999329447746,
                    1
                ],
                "metallicFactor" : 0
            }
        },
        {
            "name" : "mat17",
            "pbrMetallicRoughness" : {
                "baseColorFactor" : [
                    0.05999999865889549,
                    0.10000000149011612,
                    0.12999999523162842,
                    1
                ],
                "metallicFactor" : 0
            }
        },
        {
            "name" : "mat23",
            "pbrMetallicRoughness" : {
                "baseColorFactor" : [
                    0.009999999776482582,
                    0.009999999776482582,
                    0.009999999776482582,
                    1
                ],
                "metallicFactor" : 0
            }
        },
        {
            "name" : "mat21",
            "pbrMetallicRoughness" : {
                "metallicFactor" : 0
            }
        },
        {
            "name" : "mat13",
            "pbrMetallicRoughness" : {
                "baseColorFactor" : [
                    1,
                    0.33000001311302185,
                    0,
                    1
                ],
                "metallicFactor" : 0
            }
        },
        {
            "name" : "mat12",
            "pbrMetallicRoughness" : {
                "baseColorFactor" : [
                    1,
                    0.8299999833106995,
                    0.03999999910593033,
                    1
                ],
                "metallicFactor" : 0
            }
        },
        {
            "name" : "mat22",
            "pbrMetallicRoughness" : {
                "baseColorFactor" : [
                    0.3499999940395355,
                    0.3499999940395355,
                    0.3499999940395355,
                    1
                ],
                "metallicFactor" : 0
            }
        },
        {
            "name" : "mat5",
            "pbrMetallicRoughness" : {
                "baseColorFactor" : [
                    0,
                    0.3400000035762787,
                    0.7900000214576721,
                    1
                ],
                "metallicFactor" : 0
            }
        }
    ],
    "meshes" : [
        {
            "name" : "Node-Mesh",
            "primitives" : [
                {
                    "attributes" : {
                        "POSITION" : 0,
                        "NORMAL" : 1
                    },
                    "indices" : 2,
                    "material" : 0
                },
                {
                    "attributes" : {
                        "POSITION" : 3,
                        "NORMAL" : 4
                    },
                    "indices" : 5,
                    "material" : 1
                },
                {
                    "attributes" : {
                        "POSITION" : 6,
                        "NORMAL" : 7
                    },
                    "indices" : 8,
                    "material" : 2
                },
                {
                    "attributes" : {
                        "POSITION" : 9,
                        "NORMAL" : 10
                    },
                    "indices" : 11,
                    "material" : 3
                },
                {
                    "attributes" : {
                        "POSITION" : 12,
                        "NORMAL" : 13
                    },
                    "indices" : 14,
                    "material" : 4
                },
                {
                    "attributes" : {
                        "POSITION" : 15,
                        "NORMAL" : 16
                    },
                    "indices" : 17,
                    "material" : 5
                },
                {
                    "attributes" : {
                        "POSITION" : 18,
                        "NORMAL" : 19
                    },
                    "indices" : 20,
                    "material" : 6
                },
                {
                    "attributes" : {
                        "POSITION" : 21,
                        "NORMAL" : 22
                    },
                    "indices" : 23,
                    "material" : 7
                }
            ]
        }
    ],
    "accessors" : [
        {
            "bufferView" : 0,
            "componentType" : 5126,
            "count" : 3520,
            "max" : [
                0.3991752862930298,
                0.1185711994767189,
                0.26093021035194397
            ],
            "min" : [
                -0.3408663868904114,
                -0.06991136074066162,
                -0.28704598546028137
            ],
            "type" : "VEC3"
        },
        {
            "bufferView" : 1,
            "componentType" : 5126,
            "count" : 3520,
            "type" : "VEC3"
        },
        {
            "bufferView" : 2,
            "componentType" : 5123,
            "count" : 4620,
            "type" : "SCALAR"
        },
        {
            "bufferView" : 3,
            "componentType" : 5126,
            "count" : 166,
            "max" : [
                0.38641950488090515,
                0.06624913215637207,
                0.1607796996831894
            ],
            "min" : [
                -0.3076019883155823,
                -0.06839370727539062,
                -0.2277964949607849
            ],
            "type" : "VEC3"
        },
        {
            "bufferView" : 4,
            "componentType" : 5126,
            "count" : 166,
            "type" : "VEC3"
        },
        {
            "bufferView" : 5,
            "componentType" : 5123,
            "count" : 168,
            "type" : "SCALAR"
        },
        {
            "bufferView" : 6,
            "componentType" : 5126,
            "count" : 1670,
            "max" : [
                0.42736560106277466,
                0.04012453928589821,
                0.26833468675613403
            ],
            "min" : [
                -0.3406516909599304,
                -0.10413119941949844,
                -0.31246671080589294
            ],
            "type" : "VEC3"
        },
        {
            "bufferView" : 7,
            "componentType" : 5126,
            "count" : 1670,
            "type" : "VEC3"
        },
        {
            "bufferView" : 8,
            "componentType" : 5123,
            "count" : 1992,
            "type" : "SCALAR"
        },
        {
            "bufferView" : 9,
            "componentType" : 5126,
            "count" : 338,
            "max" : [
                0.40076789259910583,
                0.06498146057128906,
                0.2652527987957001
            ],
            "min" : [
                -0.33493751287460327,
                -0.04751706123352051,
                -0.2738766074180603
            ],
            "type" : "VEC3"
        },
        {
            "bufferView" : 10,
            "componentType" : 5126,
            "count" : 338,
            "type" : "VEC3"
        },
        {
            "bufferView" : 11,
            "componentType" : 5123,
            "count" : 408,
            "type" : "SCALAR"
        },
        {
            "bufferView" : 12,
            "componentType" : 5126,
            "count" : 130,
            "max" : [
                0.389426589012146,
                0.05664050951600075,
                0.25570619106292725
            ],
            "min" : [
                -0.34023189544677734,
                0.00017547610332258046,
                -0.24633319675922394
            ],
            "type" : "VEC3"
        },
        {
            "bufferView" : 13,
            "componentType" : 5126,
            "count" : 130,
            "type" : "VEC3"
        },
        {
            "bufferView" : 14,
            "componentType" : 5123,
            "count" : 144,
            "type" : "SCALAR"
        },
        {
            "bufferView" : 15,
            "componentType" : 5126,
            "count" : 72,
            "max" : [
                0.3759095072746277,
                0.05087018013000488,
                0.14550089836120605
            ],
            "min" : [
                -0.29642099142074585,
                -0.0013664959697052836,
                -0.1768127977848053
            ],
            "type" : "VEC3"
        },
        {
            "bufferView" : 16,
            "componentType" : 5126,
            "count" : 72,
            "type" : "VEC3"
        },
        {
            "bufferView" : 17,
            "componentType" : 5123,
            "count" : 72,
            "type" : "SCALAR"
        },
        {
            "bufferView" : 18,
            "componentType" : 5126,
            "count" : 4288,
            "max" : [
                0.34754279255867004,
                0.10979010164737701,
                0.25900301337242126
            ],
            "min" : [
                -0.3564785122871399,
                -0.0992891788482666,
                -0.2768271863460541
            ],
            "type" : "VEC3"
        },
        {
            "bufferView" : 19,
            "componentType" : 5126,
            "count" : 4288,
            "type" : "VEC3"
        },
        {
            "bufferView" : 20,
            "componentType" : 5123,
            "count" : 5568,
            "type" : "SCALAR"
        },
        {
            "bufferView" : 21,
            "componentType" : 5126,
            "count" : 368,
            "max" : [
                -0.27646440267562866,
                0.020733829587697983,
                0.16013619303703308
            ],
            "min" : [
                -0.3086310923099518,
                -0.005722879897803068,
                0.1115344986319542
            ],
            "type" : "VEC3"
        },
        {
            "bufferView" : 22,
            "componentType" : 5126,
            "count" : 368,
            "type" : "VEC3"
        },
        {
            "bufferView" : 23,
            "componentType" : 5123,
            "count" : 528,
            "type" : "SCALAR"
        }
    ],
    "bufferViews" : [
        {
            "buffer" : 0,
            "byteLength" : 42240,
            "byteOffset" : 0
        },
        {
            "buffer" : 0,
            "byteLength" : 42240,
            "byteOffset" : 42240
        },
        {
            "buffer" : 0,
            "byteLength" : 9240,
            "byteOffset" : 84480
        },
        {
            "buffer" : 0,
            "byteLength" : 1992,
            "byteOffset" : 93720
        },
        {
            "buffer" : 0,
            "byteLength" : 1992,
            "byteOffset" : 95712
        },
        {
            "buffer" : 0,
            "byteLength" : 336,
            "byteOffset" : 97704
        },
        {
            "buffer" : 0,
            "byteLength" : 20040,
            "byteOffset" : 98040
        },
        {
            "buffer" : 0,
            "byteLength" : 20040,
            "byteOffset" : 118080
        },
        {
            "buffer" : 0,
            "byteLength" : 3984,
            "byteOffset" : 138120
        },
        {
            "buffer" : 0,
            "byteLength" : 4056,
            "byteOffset" : 142104
        },
        {
            "buffer" : 0,
            "byteLength" : 4056,
            "byteOffset" : 146160
        },
        {
            "buffer" : 0,
            "byteLength" : 816,
            "byteOffset" : 150216
        },
        {
            "buffer" : 0,
            "byteLength" : 1560,
            "byteOffset" : 151032
        },
        {
            "buffer" : 0,
            "byteLength" : 1560,
            "byteOffset" : 152592
        },
        {
            "buffer" : 0,
            "byteLength" : 288,
            "byteOffset" : 154152
        },
        {
            "buffer" : 0,
            "byteLength" : 864,
            "byteOffset" : 154440
        },
        {
            "buffer" : 0,
            "byteLength" : 864,
            "byteOffset" : 155304
        },
        {
            "buffer" : 0,
            "byteLength" : 144,
            "byteOffset" : 156168
        },
        {
            "buffer" : 0,
            "byteLength" : 51456,
            "byteOffset" : 156312
        },
        {
            "buffer" : 0,
            "byteLength" : 51456,
            "byteOffset" : 207768
        },
        {
            "buffer" : 0,
            "byteLength" : 11136,
            "byteOffset" : 259224
        },
        {
            "buffer" : 0,
            "byteLength" : 4416,
            "byteOffset" : 270360
        },
        {
            "buffer" : 0,
            "byteLength" : 4416,
            "byteOffset" : 274776
        },
        {
            "buffer" : 0,
            "byteLength" : 1056,
            "byteOffset" : 279192
        }
    ],
    "buffers" : [
        {
            "byteLength" : 280248,
            "uri" : "data:application/octet-stream;base64,"
        }
    ]
}
