{
    "asset" : {
        "generator" : "Khronos glTF Blender I/O v1.8.19",
        "version" : "2.0"
    },
    "scene" : 0,
    "scenes" : [
        {
            "name" : "Scene",
            "nodes" : [
                0,
                1,
                2,
                3
            ]
        }
    ],
    "nodes" : [
        {
            "mesh" : 0,
            "name" : "NormalCar1_Cube.012"
        },
        {
            "mesh" : 1,
            "name" : "NormalCar1_BackWheels_Cube.011"
        },
        {
            "mesh" : 2,
            "name" : "NormalCar1_FrontLeftWheel_Cube.007"
        },
        {
            "mesh" : 3,
            "name" : "NormalCar1_FrontRightWheel_Cube.008"
        }
    ],
    "materials" : [
        {
            "name" : "Blue",
            "pbrMetallicRoughness" : {
                "baseColorFactor" : [
                    0.27829399704933167,
                    0.43170100450515747,
                    0.6399999856948853,
                    1
                ],
                "metallicFactor" : 0,
                "roughnessFactor" : 0.9039215445518494
            }
        },
        {
            "name" : "Windows.001",
            "pbrMetallicRoughness" : {
                "baseColorFactor" : [
                    0.028480999171733856,
                    0.028480999171733856,
                    0.028480999171733856,
                    1
                ],
                "metallicFactor" : 0,
                "roughnessFactor" : 0.9039215445518494
            }
        },
        {
            "name" : "Black.001",
            "pbrMetallicRoughness" : {
                "baseColorFactor" : [
                    0.010962000116705894,
                    0.010962000116705894,
                    0.010962000116705894,
                    1
                ],
                "metallicFactor" : 0,
                "roughnessFactor" : 0.9039215445518494
            }
        },
        {
            "name" : "Grey.001",
            "pbrMetallicRoughness" : {
                "baseColorFactor" : [
                    0.16124500334262848,
                    0.16124500334262848,
                    0.16124500334262848,
                    1
                ],
                "metallicFactor" : 0,
                "roughnessFactor" : 0.9039215445518494
            }
        },
        {
            "name" : "Headlights.001",
            "pbrMetallicRoughness" : {
                "baseColorFactor" : [
                    0.6392819881439209,
                    0.30101001262664795,
                    0.10194999724626541,
                    1
                ],
                "metallicFactor" : 0,
                "roughnessFactor" : 0.9039215445518494
            }
        },
        {
            "name" : "TailLights.001",
            "pbrMetallicRoughness" : {
                "baseColorFactor" : [
                    0.6392819881439209,
                    0.07444699853658676,
                    0.05937099829316139,
                    1
                ],
                "metallicFactor" : 0,
                "roughnessFactor" : 0.9039215445518494
            }
        }
    ],
    "meshes" : [
        {
            "name" : "NormalCar1_Cube.012-Mesh",
            "primitives" : [
                {
                    "attributes" : {
                        "POSITION" : 0,
                        "NORMAL" : 1
                    },
                    "indices" : 2,
                    "material" : 0
                },
                {
                    "attributes" : {
                        "POSITION" : 3,
                        "NORMAL" : 4
                    },
                    "indices" : 5,
                    "material" : 1
                },
                {
                    "attributes" : {
                        "POSITION" : 6,
                        "NORMAL" : 7
                    },
                    "indices" : 8,
                    "material" : 2
                },
                {
                    "attributes" : {
                        "POSITION" : 9,
                        "NORMAL" : 10
                    },
                    "indices" : 11,
                    "material" : 3
                },
                {
                    "attributes" : {
                        "POSITION" : 12,
                        "NORMAL" : 13
                    },
                    "indices" : 14,
                    "material" : 4
                },
                {
                    "attributes" : {
                        "POSITION" : 15,
                        "NORMAL" : 16
                    },
                    "indices" : 17,
                    "material" : 5
                }
            ]
        },
        {
            "name" : "NormalCar1_BackWheels_Cube.011-Mesh",
            "primitives" : [
                {
                    "attributes" : {
                        "POSITION" : 18,
                        "NORMAL" : 19
                    },
                    "indices" : 20,
                    "material" : 2
                },
                {
                    "attributes" : {
                        "POSITION" : 21,
                        "NORMAL" : 22
                    },
                    "indices" : 23,
                    "material" : 3
                }
            ]
        },
        {
            "name" : "NormalCar1_FrontLeftWheel_Cube.007-Mesh",
            "primitives" : [
                {
                    "attributes" : {
                        "POSITION" : 24,
                        "NORMAL" : 25
                    },
                    "indices" : 26,
                    "material" : 3
                },
                {
                    "attributes" : {
                        "POSITION" : 27,
                        "NORMAL" : 28
                    },
                    "indices" : 29,
                    "material" : 2
                }
            ]
        },
        {
            "name" : "NormalCar1_FrontRightWheel_Cube.008-Mesh",
            "primitives" : [
                {
                    "attributes" : {
                        "POSITION" : 30,
                        "NORMAL" : 31
                    },
                    "indices" : 32,
                    "material" : 3
                },
                {
                    "attributes" : {
                        "POSITION" : 33,
                        "NORMAL" : 34
                    },
                    "indices" : 35,
                    "material" : 2
                }
            ]
        }
    ],
    "accessors" : [
        {
            "bufferView" : 0,
            "componentType" : 5126,
            "count" : 2651,
            "max" : [
                0.9036800265312195,
                1.182608962059021,
                2.1134519577026367
            ],
            "min" : [
                -0.9036800265312195,
                0.17065900564193726,
                -2.107264995574951
            ],
            "type" : "VEC3"
        },
        {
            "bufferView" : 1,
            "componentType" : 5126,
            "count" : 2651,
            "type" : "VEC3"
        },
        {
            "bufferView" : 2,
            "componentType" : 5123,
            "count" : 3444,
            "type" : "SCALAR"
        },
        {
            "bufferView" : 3,
            "componentType" : 5126,
            "count" : 134,
            "max" : [
                0.7450379729270935,
                1.1362810134887695,
                0.8638790249824524
            ],
            "min" : [
                -0.7450379729270935,
                0.770218014717102,
                -1.348006010055542
            ],
            "type" : "VEC3"
        },
        {
            "bufferView" : 4,
            "componentType" : 5126,
            "count" : 134,
            "type" : "VEC3"
        },
        {
            "bufferView" : 5,
            "componentType" : 5123,
            "count" : 186,
            "type" : "SCALAR"
        },
        {
            "bufferView" : 6,
            "componentType" : 5126,
            "count" : 108,
            "max" : [
                0.7618950009346008,
                0.7959979772567749,
                0.8173369765281677
            ],
            "min" : [
                -0.7618950009346008,
                0.7663210034370422,
                -1.094396948814392
            ],
            "type" : "VEC3"
        },
        {
            "bufferView" : 7,
            "componentType" : 5126,
            "count" : 108,
            "type" : "VEC3"
        },
        {
            "bufferView" : 8,
            "componentType" : 5123,
            "count" : 114,
            "type" : "SCALAR"
        },
        {
            "bufferView" : 9,
            "componentType" : 5126,
            "count" : 20,
            "max" : [
                0.34416401386260986,
                0.5704740285873413,
                2.0940001010894775
            ],
            "min" : [
                -0.34416401386260986,
                0.25176000595092773,
                -2.040235996246338
            ],
            "type" : "VEC3"
        },
        {
            "bufferView" : 10,
            "componentType" : 5126,
            "count" : 20,
            "type" : "VEC3"
        },
        {
            "bufferView" : 11,
            "componentType" : 5123,
            "count" : 24,
            "type" : "SCALAR"
        },
        {
            "bufferView" : 12,
            "componentType" : 5126,
            "count" : 32,
            "max" : [
                0.7041789889335632,
                0.5318319797515869,
                2.064707040786743
            ],
            "min" : [
                -0.7041800022125244,
                0.4171839952468872,
                1.9010779857635498
            ],
            "type" : "VEC3"
        },
        {
            "bufferView" : 13,
            "componentType" : 5126,
            "count" : 32,
            "type" : "VEC3"
        },
        {
            "bufferView" : 14,
            "componentType" : 5123,
            "count" : 36,
            "type" : "SCALAR"
        },
        {
            "bufferView" : 15,
            "componentType" : 5126,
            "count" : 14,
            "max" : [
                0.6459069848060608,
                0.75798100233078,
                -1.8148720264434814
            ],
            "min" : [
                -0.6459069848060608,
                0.6237189769744873,
                -1.9728449583053589
            ],
            "type" : "VEC3"
        },
        {
            "bufferView" : 16,
            "componentType" : 5126,
            "count" : 14,
            "type" : "VEC3"
        },
        {
            "bufferView" : 17,
            "componentType" : 5123,
            "count" : 18,
            "type" : "SCALAR"
        },
        {
            "bufferView" : 18,
            "componentType" : 5126,
            "count" : 751,
            "max" : [
                0.7843189835548401,
                0.5298140048980713,
                -0.9813640117645264
            ],
            "min" : [
                -0.7825790047645569,
                0.006029999814927578,
                -1.5051480531692505
            ],
            "type" : "VEC3"
        },
        {
            "bufferView" : 19,
            "componentType" : 5126,
            "count" : 751,
            "type" : "VEC3"
        },
        {
            "bufferView" : 20,
            "componentType" : 5123,
            "count" : 828,
            "type" : "SCALAR"
        },
        {
            "bufferView" : 21,
            "componentType" : 5126,
            "count" : 1505,
            "max" : [
                0.7717069983482361,
                0.44103899598121643,
                -1.0701390504837036
            ],
            "min" : [
                -0.7699670195579529,
                0.09480500221252441,
                -1.4163739681243896
            ],
            "type" : "VEC3"
        },
        {
            "bufferView" : 22,
            "componentType" : 5126,
            "count" : 1505,
            "type" : "VEC3"
        },
        {
            "bufferView" : 23,
            "componentType" : 5123,
            "count" : 1692,
            "type" : "SCALAR"
        },
        {
            "bufferView" : 24,
            "componentType" : 5126,
            "count" : 773,
            "max" : [
                0.7734580039978027,
                0.44103899598121643,
                1.3689860105514526
            ],
            "min" : [
                0.7214120030403137,
                0.09480500221252441,
                1.022752046585083
            ],
            "type" : "VEC3"
        },
        {
            "bufferView" : 25,
            "componentType" : 5126,
            "count" : 773,
            "type" : "VEC3"
        },
        {
            "bufferView" : 26,
            "componentType" : 5123,
            "count" : 846,
            "type" : "SCALAR"
        },
        {
            "bufferView" : 27,
            "componentType" : 5126,
            "count" : 396,
            "max" : [
                0.7860699892044067,
                0.5298140048980713,
                1.4577610492706299
            ],
            "min" : [
                0.5952069759368896,
                0.006029999814927578,
                0.9339770078659058
            ],
            "type" : "VEC3"
        },
        {
            "bufferView" : 28,
            "componentType" : 5126,
            "count" : 396,
            "type" : "VEC3"
        },
        {
            "bufferView" : 29,
            "componentType" : 5123,
            "count" : 414,
            "type" : "SCALAR"
        },
        {
            "bufferView" : 30,
            "componentType" : 5126,
            "count" : 750,
            "max" : [
                -0.7196729779243469,
                0.44103899598121643,
                1.3689860105514526
            ],
            "min" : [
                -0.7717180252075195,
                0.09480500221252441,
                1.022752046585083
            ],
            "type" : "VEC3"
        },
        {
            "bufferView" : 31,
            "componentType" : 5126,
            "count" : 750,
            "type" : "VEC3"
        },
        {
            "bufferView" : 32,
            "componentType" : 5123,
            "count" : 846,
            "type" : "SCALAR"
        },
        {
            "bufferView" : 33,
            "componentType" : 5126,
            "count" : 375,
            "max" : [
                -0.5934680104255676,
                0.5298140048980713,
                1.4577610492706299
            ],
            "min" : [
                -0.7843300104141235,
                0.006029999814927578,
                0.9339770078659058
            ],
            "type" : "VEC3"
        },
        {
            "bufferView" : 34,
            "componentType" : 5126,
            "count" : 375,
            "type" : "VEC3"
        },
        {
            "bufferView" : 35,
            "componentType" : 5123,
            "count" : 414,
            "type" : "SCALAR"
        }
    ],
    "bufferViews" : [
        {
            "buffer" : 0,
            "byteLength" : 31812,
            "byteOffset" : 0
        },
        {
            "buffer" : 0,
            "byteLength" : 31812,
            "byteOffset" : 31812
        },
        {
            "buffer" : 0,
            "byteLength" : 6888,
            "byteOffset" : 63624
        },
        {
            "buffer" : 0,
            "byteLength" : 1608,
            "byteOffset" : 70512
        },
        {
            "buffer" : 0,
            "byteLength" : 1608,
            "byteOffset" : 72120
        },
        {
            "buffer" : 0,
            "byteLength" : 372,
            "byteOffset" : 73728
        },
        {
            "buffer" : 0,
            "byteLength" : 1296,
            "byteOffset" : 74100
        },
        {
            "buffer" : 0,
            "byteLength" : 1296,
            "byteOffset" : 75396
        },
        {
            "buffer" : 0,
            "byteLength" : 228,
            "byteOffset" : 76692
        },
        {
            "buffer" : 0,
            "byteLength" : 240,
            "byteOffset" : 76920
        },
        {
            "buffer" : 0,
            "byteLength" : 240,
            "byteOffset" : 77160
        },
        {
            "buffer" : 0,
            "byteLength" : 48,
            "byteOffset" : 77400
        },
        {
            "buffer" : 0,
            "byteLength" : 384,
            "byteOffset" : 77448
        },
        {
            "buffer" : 0,
            "byteLength" : 384,
            "byteOffset" : 77832
        },
        {
            "buffer" : 0,
            "byteLength" : 72,
            "byteOffset" : 78216
        },
        {
            "buffer" : 0,
            "byteLength" : 168,
            "byteOffset" : 78288
        },
        {
            "buffer" : 0,
            "byteLength" : 168,
            "byteOffset" : 78456
        },
        {
            "buffer" : 0,
            "byteLength" : 36,
            "byteOffset" : 78624
        },
        {
            "buffer" : 0,
            "byteLength" : 9012,
            "byteOffset" : 78660
        },
        {
            "buffer" : 0,
            "byteLength" : 9012,
            "byteOffset" : 87672
        },
        {
            "buffer" : 0,
            "byteLength" : 1656,
            "byteOffset" : 96684
        },
        {
            "buffer" : 0,
            "byteLength" : 18060,
            "byteOffset" : 98340
        },
        {
            "buffer" : 0,
            "byteLength" : 18060,
            "byteOffset" : 116400
        },
        {
            "buffer" : 0,
            "byteLength" : 3384,
            "byteOffset" : 134460
        },
        {
            "buffer" : 0,
            "byteLength" : 9276,
            "byteOffset" : 137844
        },
        {
            "buffer" : 0,
            "byteLength" : 9276,
            "byteOffset" : 147120
        },
        {
            "buffer" : 0,
            "byteLength" : 1692,
            "byteOffset" : 156396
        },
        {
            "buffer" : 0,
            "byteLength" : 4752,
            "byteOffset" : 158088
        },
        {
            "buffer" : 0,
            "byteLength" : 4752,
            "byteOffset" : 162840
        },
        {
            "buffer" : 0,
            "byteLength" : 828,
            "byteOffset" : 167592
        },
        {
            "buffer" : 0,
            "byteLength" : 9000,
            "byteOffset" : 168420
        },
        {
            "buffer" : 0,
            "byteLength" : 9000,
            "byteOffset" : 177420
        },
        {
            "buffer" : 0,
            "byteLength" : 1692,
            "byteOffset" : 186420
        },
        {
            "buffer" : 0,
            "byteLength" : 4500,
            "byteOffset" : 188112
        },
        {
            "buffer" : 0,
            "byteLength" : 4500,
            "byteOffset" : 192612
        },
        {
            "buffer" : 0,
            "byteLength" : 828,
            "byteOffset" : 197112
        }
    ],
    "buffers" : [
        {
            "byteLength" : 197940,
            "uri" : "data:application/octet-stream;base64,"
        }
    ]
}
