{
    "asset" : {
        "generator" : "Khronos glTF Blender I/O v1.8.19",
        "version" : "2.0"
    },
    "scene" : 0,
    "scenes" : [
        {
            "name" : "Scene",
            "nodes" : [
                0,
                1,
                2,
                3,
                4,
                5
            ]
        }
    ],
    "nodes" : [
        {
            "mesh" : 0,
            "name" : "Lamborghini_Aventador_Body",
            "scale" : [
                0.009999999776482582,
                0.009999999776482582,
                0.009999999776482582
            ]
        },
        {
            "mesh" : 1,
            "name" : "Lamborghini_Aventador_Glass",
            "scale" : [
                0.009999999776482582,
                0.009999999776482582,
                0.009999999776482582
            ]
        },
        {
            "mesh" : 2,
            "name" : "Lamborghini_Aventador_Wheel_FL",
            "scale" : [
                0.009999999776482582,
                0.009999999776482582,
                0.009999999776482582
            ]
        },
        {
            "mesh" : 3,
            "name" : "Lamborghini_Aventador_Wheel_FR",
            "scale" : [
                0.009999999776482582,
                0.009999999776482582,
                0.009999999776482582
            ]
        },
        {
            "mesh" : 4,
            "name" : "Lamborghini_Aventador_Wheel_RL",
            "scale" : [
                0.009999999776482582,
                0.009999999776482582,
                0.009999999776482582
            ]
        },
        {
            "mesh" : 5,
            "name" : "Lamborghini_Aventador_Wheel_RR",
            "scale" : [
                0.009999999776482582,
                0.009999999776482582,
                0.009999999776482582
            ]
        }
    ],
    "materials" : [
        {
            "name" : "_Lamborghini_AventadorLamborghini_Aventador_BodySG",
            "pbrMetallicRoughness" : {
                "baseColorTexture" : {
                    "index" : 0
                },
                "metallicRoughnessTexture" : {
                    "index" : 1
                },
                "roughnessFactor" : 0.9819999933242798
            }
        },
        {
            "alphaMode" : "BLEND",
            "doubleSided" : true,
            "name" : "_Lamborghini_AventadorLamborghini_Aventador_GlassSG",
            "pbrMetallicRoughness" : {
                "baseColorFactor" : [
                    0,
                    0,
                    0,
                    0.9399999976158142
                ],
                "metallicFactor" : 0,
                "roughnessFactor" : 0.9956899881362915
            }
        }
    ],
    "meshes" : [
        {
            "name" : "Lamborghini_Aventador_Body_1",
            "primitives" : [
                {
                    "attributes" : {
                        "POSITION" : 0,
                        "NORMAL" : 1,
                        "TEXCOORD_0" : 2
                    },
                    "indices" : 3,
                    "material" : 0
                }
            ]
        },
        {
            "name" : "Lamborghini_Aventador_Glass_1",
            "primitives" : [
                {
                    "attributes" : {
                        "POSITION" : 4,
                        "NORMAL" : 5,
                        "TEXCOORD_0" : 6
                    },
                    "indices" : 7,
                    "material" : 1
                }
            ]
        },
        {
            "name" : "Lamborghini_Aventador_Wheel_FL_1",
            "primitives" : [
                {
                    "attributes" : {
                        "POSITION" : 8,
                        "NORMAL" : 9,
                        "TEXCOORD_0" : 10
                    },
                    "indices" : 11,
                    "material" : 0
                }
            ]
        },
        {
            "name" : "Lamborghini_Aventador_Wheel_FR_1",
            "primitives" : [
                {
                    "attributes" : {
                        "POSITION" : 12,
                        "NORMAL" : 13,
                        "TEXCOORD_0" : 14
                    },
                    "indices" : 15,
                    "material" : 0
                }
            ]
        },
        {
            "name" : "Lamborghini_Aventador_Wheel_RL_1",
            "primitives" : [
                {
                    "attributes" : {
                        "POSITION" : 16,
                        "NORMAL" : 17,
                        "TEXCOORD_0" : 18
                    },
                    "indices" : 19,
                    "material" : 0
                }
            ]
        },
        {
            "name" : "Lamborghini_Aventador_Wheel_RR_1",
            "primitives" : [
                {
                    "attributes" : {
                        "POSITION" : 20,
                        "NORMAL" : 21,
                        "TEXCOORD_0" : 22
                    },
                    "indices" : 23,
                    "material" : 0
                }
            ]
        }
    ],
    "textures" : [
        {
            "sampler" : 0,
            "source" : 0
        },
        {
            "sampler" : 0,
            "source" : 1
        }
    ],
    "images" : [
        {
            "bufferView" : 4,
            "mimeType" : "image/jpeg",
            "name" : "Image_0"
        },
        {
            "bufferView" : 5,
            "mimeType" : "image/png",
            "name" : "Image_1"
        }
    ],
    "accessors" : [
        {
            "bufferView" : 0,
            "componentType" : 5126,
            "count" : 21423,
            "max" : [
                95.55989837646484,
                117.59369659423828,
                217.67140197753906
            ],
            "min" : [
                -134.6428985595703,
                12.992300033569336,
                -271.769287109375
            ],
            "type" : "VEC3"
        },
        {
            "bufferView" : 1,
            "componentType" : 5126,
            "count" : 21423,
            "type" : "VEC3"
        },
        {
            "bufferView" : 2,
            "componentType" : 5126,
            "count" : 21423,
            "type" : "VEC2"
        },
        {
            "bufferView" : 3,
            "componentType" : 5123,
            "count" : 21804,
            "type" : "SCALAR"
        },
        {
            "bufferView" : 6,
            "componentType" : 5126,
            "count" : 384,
            "max" : [
                68.34880065917969,
                110.94429779052734,
                187.12869262695312
            ],
            "min" : [
                -107.43170166015625,
                52.842098236083984,
                -88.46549987792969
            ],
            "type" : "VEC3"
        },
        {
            "bufferView" : 7,
            "componentType" : 5126,
            "count" : 384,
            "type" : "VEC3"
        },
        {
            "bufferView" : 8,
            "componentType" : 5126,
            "count" : 384,
            "type" : "VEC2"
        },
        {
            "bufferView" : 9,
            "componentType" : 5123,
            "count" : 384,
            "type" : "SCALAR"
        },
        {
            "bufferView" : 10,
            "componentType" : 5126,
            "count" : 1989,
            "max" : [
                81.13829803466797,
                69.15760040283203,
                133.99749755859375
            ],
            "min" : [
                50.63690185546875,
                0.04039999842643738,
                64.88009643554688
            ],
            "type" : "VEC3"
        },
        {
            "bufferView" : 11,
            "componentType" : 5126,
            "count" : 1989,
            "type" : "VEC3"
        },
        {
            "bufferView" : 12,
            "componentType" : 5126,
            "count" : 1989,
            "type" : "VEC2"
        },
        {
            "bufferView" : 13,
            "componentType" : 5123,
            "count" : 2142,
            "type" : "SCALAR"
        },
        {
            "bufferView" : 14,
            "componentType" : 5126,
            "count" : 1976,
            "max" : [
                -89.71980285644531,
                69.15760040283203,
                133.99749755859375
            ],
            "min" : [
                -120.22119903564453,
                0.04039999842643738,
                64.88009643554688
            ],
            "type" : "VEC3"
        },
        {
            "bufferView" : 15,
            "componentType" : 5126,
            "count" : 1976,
            "type" : "VEC3"
        },
        {
            "bufferView" : 16,
            "componentType" : 5126,
            "count" : 1976,
            "type" : "VEC2"
        },
        {
            "bufferView" : 17,
            "componentType" : 5123,
            "count" : 2142,
            "type" : "SCALAR"
        },
        {
            "bufferView" : 18,
            "componentType" : 5126,
            "count" : 1956,
            "max" : [
                81.94020080566406,
                72.79190063476562,
                -139.09230041503906
            ],
            "min" : [
                49.83489990234375,
                0.04039999842643738,
                -211.843994140625
            ],
            "type" : "VEC3"
        },
        {
            "bufferView" : 19,
            "componentType" : 5126,
            "count" : 1956,
            "type" : "VEC3"
        },
        {
            "bufferView" : 20,
            "componentType" : 5126,
            "count" : 1956,
            "type" : "VEC2"
        },
        {
            "bufferView" : 21,
            "componentType" : 5123,
            "count" : 2142,
            "type" : "SCALAR"
        },
        {
            "bufferView" : 22,
            "componentType" : 5126,
            "count" : 1973,
            "max" : [
                -88.91790008544922,
                72.79190063476562,
                -139.09230041503906
            ],
            "min" : [
                -121.02320098876953,
                0.04039999842643738,
                -211.843994140625
            ],
            "type" : "VEC3"
        },
        {
            "bufferView" : 23,
            "componentType" : 5126,
            "count" : 1973,
            "type" : "VEC3"
        },
        {
            "bufferView" : 24,
            "componentType" : 5126,
            "count" : 1973,
            "type" : "VEC2"
        },
        {
            "bufferView" : 25,
            "componentType" : 5123,
            "count" : 2142,
            "type" : "SCALAR"
        }
    ],
    "bufferViews" : [
        {
            "buffer" : 0,
            "byteLength" : 257076,
            "byteOffset" : 0
        },
        {
            "buffer" : 0,
            "byteLength" : 257076,
            "byteOffset" : 257076
        },
        {
            "buffer" : 0,
            "byteLength" : 171384,
            "byteOffset" : 514152
        },
        {
            "buffer" : 0,
            "byteLength" : 43608,
            "byteOffset" : 685536
        },
        {
            "buffer" : 0,
            "byteLength" : 330994,
            "byteOffset" : 729144
        },
        {
            "buffer" : 0,
            "byteLength" : 1258941,
            "byteOffset" : 1060140
        },
        {
            "buffer" : 0,
            "byteLength" : 4608,
            "byteOffset" : 2319084
        },
        {
            "buffer" : 0,
            "byteLength" : 4608,
            "byteOffset" : 2323692
        },
        {
            "buffer" : 0,
            "byteLength" : 3072,
            "byteOffset" : 2328300
        },
        {
            "buffer" : 0,
            "byteLength" : 768,
            "byteOffset" : 2331372
        },
        {
            "buffer" : 0,
            "byteLength" : 23868,
            "byteOffset" : 2332140
        },
        {
            "buffer" : 0,
            "byteLength" : 23868,
            "byteOffset" : 2356008
        },
        {
            "buffer" : 0,
            "byteLength" : 15912,
            "byteOffset" : 2379876
        },
        {
            "buffer" : 0,
            "byteLength" : 4284,
            "byteOffset" : 2395788
        },
        {
            "buffer" : 0,
            "byteLength" : 23712,
            "byteOffset" : 2400072
        },
        {
            "buffer" : 0,
            "byteLength" : 23712,
            "byteOffset" : 2423784
        },
        {
            "buffer" : 0,
            "byteLength" : 15808,
            "byteOffset" : 2447496
        },
        {
            "buffer" : 0,
            "byteLength" : 4284,
            "byteOffset" : 2463304
        },
        {
            "buffer" : 0,
            "byteLength" : 23472,
            "byteOffset" : 2467588
        },
        {
            "buffer" : 0,
            "byteLength" : 23472,
            "byteOffset" : 2491060
        },
        {
            "buffer" : 0,
            "byteLength" : 15648,
            "byteOffset" : 2514532
        },
        {
            "buffer" : 0,
            "byteLength" : 4284,
            "byteOffset" : 2530180
        },
        {
            "buffer" : 0,
            "byteLength" : 23676,
            "byteOffset" : 2534464
        },
        {
            "buffer" : 0,
            "byteLength" : 23676,
            "byteOffset" : 2558140
        },
        {
            "buffer" : 0,
            "byteLength" : 15784,
            "byteOffset" : 2581816
        },
        {
            "buffer" : 0,
            "byteLength" : 4284,
            "byteOffset" : 2597600
        }
    ],
    "samplers" : [
        {
            "magFilter" : 9729,
            "minFilter" : 9987
        }
    ],
    "buffers" : [
        {
            "byteLength" : 2601884,
            "uri" : "data:application/octet-stream;base64,"
        }
    ]
}
