{
    "asset" : {
        "generator" : "Khronos glTF Blender I/O v1.8.19",
        "version" : "2.0"
    },
    "scene" : 0,
    "scenes" : [
        {
            "name" : "Scene",
            "nodes" : [
                5
            ]
        }
    ],
    "nodes" : [
        {
            "mesh" : 0,
            "name" : "Object_5"
        },
        {
            "children" : [
                0
            ],
            "name" : "_0",
            "rotation" : [
                0,
                0,
                -0.1223098561167717,
                0.9924919605255127
            ],
            "scale" : [
                0.42527148127555847,
                0.36142057180404663,
                0.21263574063777924
            ],
            "translation" : [
                0.013674749992787838,
                0.035271406173706055,
                0.1996435672044754
            ]
        },
        {
            "children" : [
                1
            ],
            "name" : "root_1"
        },
        {
            "children" : [
                2
            ],
            "name" : "GLTF_SceneRootNode",
            "rotation" : [
                0.7071068286895752,
                0,
                0,
                0.7071068286895752
            ]
        },
        {
            "children" : [
                3
            ],
            "name" : "root"
        },
        {
            "children" : [
                4
            ],
            "name" : "Sketchfab_model",
            "rotation" : [
                -0.7071068286895752,
                0,
                0,
                0.7071068286895752
            ]
        }
    ],
    "materials" : [
        {
            "doubleSided" : true,
            "name" : "material",
            "pbrMetallicRoughness" : {}
        }
    ],
    "meshes" : [
        {
            "name" : "Object_0",
            "primitives" : [
                {
                    "attributes" : {
                        "POSITION" : 0,
                        "NORMAL" : 1,
                        "TEXCOORD_0" : 2,
                        "TEXCOORD_1" : 3,
                        "TEXCOORD_2" : 4
                    },
                    "indices" : 5,
                    "material" : 0
                }
            ]
        }
    ],
    "accessors" : [
        {
            "bufferView" : 0,
            "componentType" : 5126,
            "count" : 21669,
            "max" : [
                0.4999999701976776,
                0.5,
                0.2740863263607025
            ],
            "min" : [
                -0.4999999701976776,
                -0.4996660351753235,
                -0.2740863263607025
            ],
            "type" : "VEC3"
        },
        {
            "bufferView" : 1,
            "componentType" : 5126,
            "count" : 21669,
            "type" : "VEC3"
        },
        {
            "bufferView" : 2,
            "componentType" : 5126,
            "count" : 21669,
            "type" : "VEC2"
        },
        {
            "bufferView" : 3,
            "componentType" : 5126,
            "count" : 21669,
            "type" : "VEC2"
        },
        {
            "bufferView" : 4,
            "componentType" : 5126,
            "count" : 21669,
            "type" : "VEC2"
        },
        {
            "bufferView" : 5,
            "componentType" : 5123,
            "count" : 126582,
            "type" : "SCALAR"
        }
    ],
    "bufferViews" : [
        {
            "buffer" : 0,
            "byteLength" : 260028,
            "byteOffset" : 0
        },
        {
            "buffer" : 0,
            "byteLength" : 260028,
            "byteOffset" : 260028
        },
        {
            "buffer" : 0,
            "byteLength" : 173352,
            "byteOffset" : 520056
        },
        {
            "buffer" : 0,
            "byteLength" : 173352,
            "byteOffset" : 693408
        },
        {
            "buffer" : 0,
            "byteLength" : 173352,
            "byteOffset" : 866760
        },
        {
            "buffer" : 0,
            "byteLength" : 253164,
            "byteOffset" : 1040112
        }
    ],
    "buffers" : [
        {
            "byteLength" : 1293276,
            "uri" : "data:application/octet-stream;base64,"
        }
    ]
}
