{
    "asset" : {
        "generator" : "Khronos glTF Blender I/O v1.8.19",
        "version" : "2.0"
    },
    "scene" : 0,
    "scenes" : [
        {
            "name" : "Scene",
            "nodes" : [
                0,
                1,
                2,
                3
            ]
        }
    ],
    "nodes" : [
        {
            "mesh" : 0,
            "name" : "SportsCar2_Cube.006"
        },
        {
            "mesh" : 1,
            "name" : "SportsCar2_BackWheels_Cylinder.002"
        },
        {
            "mesh" : 2,
            "name" : "SportsCar2_FrontLeftWheel_Cylinder.017"
        },
        {
            "mesh" : 3,
            "name" : "SportsCar2_FrontRightWheel_Cylinder.018"
        }
    ],
    "materials" : [
        {
            "name" : "White",
            "pbrMetallicRoughness" : {
                "baseColorFactor" : [
                    0.5487589836120605,
                    0.5487589836120605,
                    0.5487589836120605,
                    1
                ],
                "metallicFactor" : 0,
                "roughnessFactor" : 0.9039215445518494
            }
        },
        {
            "name" : "Windows",
            "pbrMetallicRoughness" : {
                "baseColorFactor" : [
                    0.028172999620437622,
                    0.028172999620437622,
                    0.028172999620437622,
                    1
                ],
                "metallicFactor" : 0,
                "roughnessFactor" : 0.9039215445518494
            }
        },
        {
            "name" : "Grey",
            "pbrMetallicRoughness" : {
                "baseColorFactor" : [
                    0.12594400346279144,
                    0.12594400346279144,
                    0.12594400346279144,
                    1
                ],
                "metallicFactor" : 0,
                "roughnessFactor" : 0.9039215445518494
            }
        },
        {
            "name" : "Headlights",
            "pbrMetallicRoughness" : {
                "baseColorFactor" : [
                    0.6399999856948853,
                    0.29956600069999695,
                    0.10198000073432922,
                    1
                ],
                "metallicFactor" : 0,
                "roughnessFactor" : 0.9039215445518494
            }
        },
        {
            "name" : "TailLights",
            "pbrMetallicRoughness" : {
                "baseColorFactor" : [
                    0.6399999856948853,
                    0.07372500002384186,
                    0.058997999876737595,
                    1
                ],
                "metallicFactor" : 0,
                "roughnessFactor" : 0.9039215445518494
            }
        },
        {
            "name" : "Black",
            "pbrMetallicRoughness" : {
                "baseColorFactor" : [
                    0.010727999731898308,
                    0.010727999731898308,
                    0.010727999731898308,
                    1
                ],
                "metallicFactor" : 0,
                "roughnessFactor" : 0.9039215445518494
            }
        }
    ],
    "meshes" : [
        {
            "name" : "SportsCar2_Cube.006-Mesh",
            "primitives" : [
                {
                    "attributes" : {
                        "POSITION" : 0,
                        "NORMAL" : 1
                    },
                    "indices" : 2,
                    "material" : 0
                },
                {
                    "attributes" : {
                        "POSITION" : 3,
                        "NORMAL" : 4
                    },
                    "indices" : 5,
                    "material" : 1
                },
                {
                    "attributes" : {
                        "POSITION" : 6,
                        "NORMAL" : 7
                    },
                    "indices" : 8,
                    "material" : 2
                },
                {
                    "attributes" : {
                        "POSITION" : 9,
                        "NORMAL" : 10
                    },
                    "indices" : 11,
                    "material" : 3
                },
                {
                    "attributes" : {
                        "POSITION" : 12,
                        "NORMAL" : 13
                    },
                    "indices" : 14,
                    "material" : 4
                }
            ]
        },
        {
            "name" : "SportsCar2_BackWheels_Cylinder.002-Mesh",
            "primitives" : [
                {
                    "attributes" : {
                        "POSITION" : 15,
                        "NORMAL" : 16
                    },
                    "indices" : 17,
                    "material" : 5
                },
                {
                    "attributes" : {
                        "POSITION" : 18,
                        "NORMAL" : 19
                    },
                    "indices" : 20,
                    "material" : 2
                }
            ]
        },
        {
            "name" : "SportsCar2_FrontLeftWheel_Cylinder.017-Mesh",
            "primitives" : [
                {
                    "attributes" : {
                        "POSITION" : 21,
                        "NORMAL" : 22
                    },
                    "indices" : 23,
                    "material" : 2
                },
                {
                    "attributes" : {
                        "POSITION" : 24,
                        "NORMAL" : 25
                    },
                    "indices" : 26,
                    "material" : 5
                }
            ]
        },
        {
            "name" : "SportsCar2_FrontRightWheel_Cylinder.018-Mesh",
            "primitives" : [
                {
                    "attributes" : {
                        "POSITION" : 27,
                        "NORMAL" : 28
                    },
                    "indices" : 29,
                    "material" : 2
                },
                {
                    "attributes" : {
                        "POSITION" : 30,
                        "NORMAL" : 31
                    },
                    "indices" : 32,
                    "material" : 5
                }
            ]
        }
    ],
    "accessors" : [
        {
            "bufferView" : 0,
            "componentType" : 5126,
            "count" : 2895,
            "max" : [
                0.8597970008850098,
                1.1873170137405396,
                1.8979690074920654
            ],
            "min" : [
                -0.8597970008850098,
                0.1521719992160797,
                -2.028563976287842
            ],
            "type" : "VEC3"
        },
        {
            "bufferView" : 1,
            "componentType" : 5126,
            "count" : 2895,
            "type" : "VEC3"
        },
        {
            "bufferView" : 2,
            "componentType" : 5123,
            "count" : 3750,
            "type" : "SCALAR"
        },
        {
            "bufferView" : 3,
            "componentType" : 5126,
            "count" : 132,
            "max" : [
                0.7230520248413086,
                1.1477949619293213,
                0.7776079773902893
            ],
            "min" : [
                -0.7230520248413086,
                0.8139370083808899,
                -1.464627981185913
            ],
            "type" : "VEC3"
        },
        {
            "bufferView" : 4,
            "componentType" : 5126,
            "count" : 132,
            "type" : "VEC3"
        },
        {
            "bufferView" : 5,
            "componentType" : 5123,
            "count" : 186,
            "type" : "SCALAR"
        },
        {
            "bufferView" : 6,
            "componentType" : 5126,
            "count" : 320,
            "max" : [
                0.9357950091362,
                0.8402310013771057,
                1.874068021774292
            ],
            "min" : [
                -0.9357960224151611,
                0.1521719992160797,
                -1.972337007522583
            ],
            "type" : "VEC3"
        },
        {
            "bufferView" : 7,
            "componentType" : 5126,
            "count" : 320,
            "type" : "VEC3"
        },
        {
            "bufferView" : 8,
            "componentType" : 5123,
            "count" : 372,
            "type" : "SCALAR"
        },
        {
            "bufferView" : 9,
            "componentType" : 5126,
            "count" : 22,
            "max" : [
                0.6910139918327332,
                0.5830420255661011,
                1.7782310247421265
            ],
            "min" : [
                -0.6910139918327332,
                0.42338401079177856,
                1.6158180236816406
            ],
            "type" : "VEC3"
        },
        {
            "bufferView" : 10,
            "componentType" : 5126,
            "count" : 22,
            "type" : "VEC3"
        },
        {
            "bufferView" : 11,
            "componentType" : 5123,
            "count" : 30,
            "type" : "SCALAR"
        },
        {
            "bufferView" : 12,
            "componentType" : 5126,
            "count" : 38,
            "max" : [
                0.6336529850959778,
                0.8668190240859985,
                -1.7454290390014648
            ],
            "min" : [
                -0.6336529850959778,
                0.6440219879150391,
                -1.88047194480896
            ],
            "type" : "VEC3"
        },
        {
            "bufferView" : 13,
            "componentType" : 5126,
            "count" : 38,
            "type" : "VEC3"
        },
        {
            "bufferView" : 14,
            "componentType" : 5123,
            "count" : 66,
            "type" : "SCALAR"
        },
        {
            "bufferView" : 15,
            "componentType" : 5126,
            "count" : 764,
            "max" : [
                0.7917159795761108,
                0.5450490117073059,
                -1.0403670072555542
            ],
            "min" : [
                -0.7898190021514893,
                -0.015737999230623245,
                -1.601153016090393
            ],
            "type" : "VEC3"
        },
        {
            "bufferView" : 16,
            "componentType" : 5126,
            "count" : 764,
            "type" : "VEC3"
        },
        {
            "bufferView" : 17,
            "componentType" : 5123,
            "count" : 828,
            "type" : "SCALAR"
        },
        {
            "bufferView" : 18,
            "componentType" : 5126,
            "count" : 1540,
            "max" : [
                0.7782120108604431,
                0.4500029981136322,
                -1.1354130506515503
            ],
            "min" : [
                -0.7763159871101379,
                0.07930900156497955,
                -1.506108045578003
            ],
            "type" : "VEC3"
        },
        {
            "bufferView" : 19,
            "componentType" : 5126,
            "count" : 1540,
            "type" : "VEC3"
        },
        {
            "bufferView" : 20,
            "componentType" : 5123,
            "count" : 1692,
            "type" : "SCALAR"
        },
        {
            "bufferView" : 21,
            "componentType" : 5126,
            "count" : 778,
            "max" : [
                0.8018239736557007,
                0.4500029981136322,
                1.371269941329956
            ],
            "min" : [
                0.7461010217666626,
                0.07930900156497955,
                1.0005760192871094
            ],
            "type" : "VEC3"
        },
        {
            "bufferView" : 22,
            "componentType" : 5126,
            "count" : 778,
            "type" : "VEC3"
        },
        {
            "bufferView" : 23,
            "componentType" : 5123,
            "count" : 846,
            "type" : "SCALAR"
        },
        {
            "bufferView" : 24,
            "componentType" : 5126,
            "count" : 399,
            "max" : [
                0.815326988697052,
                0.5450490117073059,
                1.466317057609558
            ],
            "min" : [
                0.6366549730300903,
                -0.015737999230623245,
                0.9055299758911133
            ],
            "type" : "VEC3"
        },
        {
            "bufferView" : 25,
            "componentType" : 5126,
            "count" : 399,
            "type" : "VEC3"
        },
        {
            "bufferView" : 26,
            "componentType" : 5123,
            "count" : 414,
            "type" : "SCALAR"
        },
        {
            "bufferView" : 27,
            "componentType" : 5126,
            "count" : 770,
            "max" : [
                -0.7442039847373962,
                0.4500029981136322,
                1.371269941329956
            ],
            "min" : [
                -0.7999269962310791,
                0.07930900156497955,
                1.0005760192871094
            ],
            "type" : "VEC3"
        },
        {
            "bufferView" : 28,
            "componentType" : 5126,
            "count" : 770,
            "type" : "VEC3"
        },
        {
            "bufferView" : 29,
            "componentType" : 5123,
            "count" : 846,
            "type" : "SCALAR"
        },
        {
            "bufferView" : 30,
            "componentType" : 5126,
            "count" : 378,
            "max" : [
                -0.6347579956054688,
                0.5450490117073059,
                1.466317057609558
            ],
            "min" : [
                -0.8134300112724304,
                -0.015737999230623245,
                0.9055299758911133
            ],
            "type" : "VEC3"
        },
        {
            "bufferView" : 31,
            "componentType" : 5126,
            "count" : 378,
            "type" : "VEC3"
        },
        {
            "bufferView" : 32,
            "componentType" : 5123,
            "count" : 414,
            "type" : "SCALAR"
        }
    ],
    "bufferViews" : [
        {
            "buffer" : 0,
            "byteLength" : 34740,
            "byteOffset" : 0
        },
        {
            "buffer" : 0,
            "byteLength" : 34740,
            "byteOffset" : 34740
        },
        {
            "buffer" : 0,
            "byteLength" : 7500,
            "byteOffset" : 69480
        },
        {
            "buffer" : 0,
            "byteLength" : 1584,
            "byteOffset" : 76980
        },
        {
            "buffer" : 0,
            "byteLength" : 1584,
            "byteOffset" : 78564
        },
        {
            "buffer" : 0,
            "byteLength" : 372,
            "byteOffset" : 80148
        },
        {
            "buffer" : 0,
            "byteLength" : 3840,
            "byteOffset" : 80520
        },
        {
            "buffer" : 0,
            "byteLength" : 3840,
            "byteOffset" : 84360
        },
        {
            "buffer" : 0,
            "byteLength" : 744,
            "byteOffset" : 88200
        },
        {
            "buffer" : 0,
            "byteLength" : 264,
            "byteOffset" : 88944
        },
        {
            "buffer" : 0,
            "byteLength" : 264,
            "byteOffset" : 89208
        },
        {
            "buffer" : 0,
            "byteLength" : 60,
            "byteOffset" : 89472
        },
        {
            "buffer" : 0,
            "byteLength" : 456,
            "byteOffset" : 89532
        },
        {
            "buffer" : 0,
            "byteLength" : 456,
            "byteOffset" : 89988
        },
        {
            "buffer" : 0,
            "byteLength" : 132,
            "byteOffset" : 90444
        },
        {
            "buffer" : 0,
            "byteLength" : 9168,
            "byteOffset" : 90576
        },
        {
            "buffer" : 0,
            "byteLength" : 9168,
            "byteOffset" : 99744
        },
        {
            "buffer" : 0,
            "byteLength" : 1656,
            "byteOffset" : 108912
        },
        {
            "buffer" : 0,
            "byteLength" : 18480,
            "byteOffset" : 110568
        },
        {
            "buffer" : 0,
            "byteLength" : 18480,
            "byteOffset" : 129048
        },
        {
            "buffer" : 0,
            "byteLength" : 3384,
            "byteOffset" : 147528
        },
        {
            "buffer" : 0,
            "byteLength" : 9336,
            "byteOffset" : 150912
        },
        {
            "buffer" : 0,
            "byteLength" : 9336,
            "byteOffset" : 160248
        },
        {
            "buffer" : 0,
            "byteLength" : 1692,
            "byteOffset" : 169584
        },
        {
            "buffer" : 0,
            "byteLength" : 4788,
            "byteOffset" : 171276
        },
        {
            "buffer" : 0,
            "byteLength" : 4788,
            "byteOffset" : 176064
        },
        {
            "buffer" : 0,
            "byteLength" : 828,
            "byteOffset" : 180852
        },
        {
            "buffer" : 0,
            "byteLength" : 9240,
            "byteOffset" : 181680
        },
        {
            "buffer" : 0,
            "byteLength" : 9240,
            "byteOffset" : 190920
        },
        {
            "buffer" : 0,
            "byteLength" : 1692,
            "byteOffset" : 200160
        },
        {
            "buffer" : 0,
            "byteLength" : 4536,
            "byteOffset" : 201852
        },
        {
            "buffer" : 0,
            "byteLength" : 4536,
            "byteOffset" : 206388
        },
        {
            "buffer" : 0,
            "byteLength" : 828,
            "byteOffset" : 210924
        }
    ],
    "buffers" : [
        {
            "byteLength" : 211752,
            "uri" : "data:application/octet-stream;base64,"
        }
    ]
}
