{
    "asset" : {
        "generator" : "Khronos glTF Blender I/O v1.8.19",
        "version" : "2.0"
    },
    "scene" : 0,
    "scenes" : [
        {
            "name" : "Scene",
            "nodes" : [
                0,
                1,
                2,
                3
            ]
        }
    ],
    "nodes" : [
        {
            "mesh" : 0,
            "name" : "uploads_files_2382707_Garrison+Rgt+Crest+-+Garrison+Rgt+Roses-1",
            "scale" : [
                99999997952,
                99999997952,
                99999997952
            ]
        },
        {
            "mesh" : 1,
            "name" : "uploads_files_2382707_Garrison+Rgt+Crest+-+Garrison+Rgt+Shield+",
            "scale" : [
                99999997952,
                99999997952,
                99999997952
            ]
        },
        {
            "mesh" : 2,
            "name" : "uploads_files_2382707_Garrison+Rgt+Crest+-+Garrison+Rgt+Shi",
            "scale" : [
                99999997952,
                99999997952,
                99999997952
            ]
        },
        {
            "mesh" : 3,
            "name" : "uploads_files_2382707_Garrison+Rgt+Crest+-+Garrison+Rgt+Stems-1",
            "scale" : [
                99999997952,
                99999997952,
                99999997952
            ]
        }
    ],
    "meshes" : [
        {
            "name" : "uploads_files_2382707_Garrison+Rgt+Crest+-+Garrison+Rgt+Ros",
            "primitives" : [
                {
                    "attributes" : {
                        "POSITION" : 0,
                        "NORMAL" : 1
                    },
                    "indices" : 2
                }
            ]
        },
        {
            "name" : "uploads_files_2382707_Garrison+Rgt+Crest+-+Garrison+Rgt+Shi.001",
            "primitives" : [
                {
                    "attributes" : {
                        "POSITION" : 3,
                        "NORMAL" : 4
                    },
                    "indices" : 5
                }
            ]
        },
        {
            "name" : "uploads_files_2382707_Garrison+Rgt+Crest+-+Garrison+Rgt+Shi.002",
            "primitives" : [
                {
                    "attributes" : {
                        "POSITION" : 6,
                        "NORMAL" : 7
                    },
                    "indices" : 8
                }
            ]
        },
        {
            "name" : "uploads_files_2382707_Garrison+Rgt+Crest+-+Garrison+Rgt+Ste",
            "primitives" : [
                {
                    "attributes" : {
                        "POSITION" : 9,
                        "NORMAL" : 10
                    },
                    "indices" : 11
                }
            ]
        }
    ],
    "accessors" : [
        {
            "bufferView" : 0,
            "componentType" : 5126,
            "count" : 27320,
            "max" : [
                847.8618774414062,
                765.0037231445312,
                -1356.21484375
            ],
            "min" : [
                174.4127655029297,
                0.036412313580513,
                -1366.21484375
            ],
            "type" : "VEC3"
        },
        {
            "bufferView" : 1,
            "componentType" : 5126,
            "count" : 27320,
            "type" : "VEC3"
        },
        {
            "bufferView" : 2,
            "componentType" : 5123,
            "count" : 30708,
            "type" : "SCALAR"
        },
        {
            "bufferView" : 3,
            "componentType" : 5126,
            "count" : 36,
            "max" : [
                859.2607421875,
                924.538330078125,
                -1326.21484375
            ],
            "min" : [
                152.254638671875,
                16.041929244995117,
                -1356.21484375
            ],
            "type" : "VEC3"
        },
        {
            "bufferView" : 4,
            "componentType" : 5126,
            "count" : 36,
            "type" : "VEC3"
        },
        {
            "bufferView" : 5,
            "componentType" : 5123,
            "count" : 48,
            "type" : "SCALAR"
        },
        {
            "bufferView" : 6,
            "componentType" : 5126,
            "count" : 4425,
            "max" : [
                859.2607421875,
                924.538330078125,
                -1356.21484375
            ],
            "min" : [
                152.254638671875,
                16.041929244995117,
                -1366.21484375
            ],
            "type" : "VEC3"
        },
        {
            "bufferView" : 7,
            "componentType" : 5126,
            "count" : 4425,
            "type" : "VEC3"
        },
        {
            "bufferView" : 8,
            "componentType" : 5123,
            "count" : 5112,
            "type" : "SCALAR"
        },
        {
            "bufferView" : 9,
            "componentType" : 5126,
            "count" : 10142,
            "max" : [
                874.2708129882812,
                932.478515625,
                -1356.21484375
            ],
            "min" : [
                338.4398498535156,
                162.20318603515625,
                -1366.21484375
            ],
            "type" : "VEC3"
        },
        {
            "bufferView" : 10,
            "componentType" : 5126,
            "count" : 10142,
            "type" : "VEC3"
        },
        {
            "bufferView" : 11,
            "componentType" : 5123,
            "count" : 11664,
            "type" : "SCALAR"
        }
    ],
    "bufferViews" : [
        {
            "buffer" : 0,
            "byteLength" : 327840,
            "byteOffset" : 0
        },
        {
            "buffer" : 0,
            "byteLength" : 327840,
            "byteOffset" : 327840
        },
        {
            "buffer" : 0,
            "byteLength" : 61416,
            "byteOffset" : 655680
        },
        {
            "buffer" : 0,
            "byteLength" : 432,
            "byteOffset" : 717096
        },
        {
            "buffer" : 0,
            "byteLength" : 432,
            "byteOffset" : 717528
        },
        {
            "buffer" : 0,
            "byteLength" : 96,
            "byteOffset" : 717960
        },
        {
            "buffer" : 0,
            "byteLength" : 53100,
            "byteOffset" : 718056
        },
        {
            "buffer" : 0,
            "byteLength" : 53100,
            "byteOffset" : 771156
        },
        {
            "buffer" : 0,
            "byteLength" : 10224,
            "byteOffset" : 824256
        },
        {
            "buffer" : 0,
            "byteLength" : 121704,
            "byteOffset" : 834480
        },
        {
            "buffer" : 0,
            "byteLength" : 121704,
            "byteOffset" : 956184
        },
        {
            "buffer" : 0,
            "byteLength" : 23328,
            "byteOffset" : 1077888
        }
    ],
    "buffers" : [
        {
            "byteLength" : 1101216,
            "uri" : "data:application/octet-stream;base64,"
        }
    ]
}
